<svg viewBox="0 0 64 64" xmlns="http://www.w3.org/2000/svg">
      <g>
        <!-- Coin Stack -->
        <ellipse style="fill:#a5b4fc;" cx="32" cy="54" rx="20" ry="6"/>
        <path style="fill:#4f46e5;" d="M12,54v-4c0-3.3,8.9-6,20-6s20,2.7,20,6v4H12z"/>
        <path style="fill:#a5b4fc;" d="M12,48v-4c0-3.3,8.9-6,20-6s20,2.7,20,6v4H12z"/>
        <path style="fill:#4f46e5;" d="M12,42v-4c0-3.3,8.9-6,20-6s20,2.7,20,6v4H12z"/>
        <path style="fill:#a5b4fc;" d="M12,36v-4c0-3.3,8.9-6,20-6s20,2.7,20,6v4H12z"/>
        
        <!-- Dollar Sign -->
        <g transform="translate(11, -5) scale(0.5)">
          <path fill="#3730a3" d="M61.25,55.669c0-7.974-5.207-13.201-15.448-15.57v-20.77c7.415,0.763,8.724,4.249,8.724,11.349c0,0.365,0.168,0.709,0.457,0.934c0.288,0.224,0.66,0.301,1.017,0.212l3.887-0.992c0.542-0.139,0.914-0.639,0.888-1.198c-0.442-9.722-3.152-15.699-14.972-16.656V0.787C45.802,0.352,45.45,0,45.014,0h-5.512c-0.435,0-0.787,0.353-0.787,0.787V13.02c-10.034,1.006-15.131,6.522-15.131,16.468c0,7.891,5.097,13.095,15.131,15.497v20.891c-9.191-0.669-9.198-4.301-9.198-11.396c0-0.365-0.168-0.709-0.457-0.934c-0.288-0.224-0.66-0.301-1.017-0.212l-3.887,0.992c-0.542,0.139-0.914,0.639-0.888,1.198c0.442,9.722,3.152,15.699,14.972,16.656v11.444c0,0.435,0.352,0.787,0.787,0.787h5.512c0.435,0,0.787-0.352,0.787-0.787V70.978c10.034-1.006,15.131,6.522,15.131-16.468C61.665,54.427,61.457,55.01,61.25,55.669z"/>
        </g>
      </g>
    </svg>