<?xml version="1.0" encoding="iso-8859-1"?>
<!-- Uploaded to: SVG Repo, www.svgrepo.com, Generator: SVG Repo Mixer Tools -->
<svg height="800px" width="800px" version="1.1" id="Layer_1" xmlns="http://www.w3.org/2000/svg" xmlns:xlink="http://www.w3.org/1999/xlink" 
	 viewBox="0 0 503.467 503.467" xml:space="preserve">
<g transform="translate(1 1)">
	<path style="fill:#0284c7;" d="M139.8,498.2H191V327.533h-51.2V498.2z M311.32,498.2h50.347V344.6H311.32V498.2z M395.8,498.2H447
		V225.133h-51.2V498.2z M225.133,498.2h51.2V293.4h-51.2V498.2z M54.467,498.2h51.2V395.8h-51.2V498.2z"/>
	<path style="fill:#38bdf8;" d="M250.733,54.467c14.507,0,25.6,11.093,25.6,25.6c0,6.827-2.56,13.653-7.68,17.92
		c-4.267,4.267-11.093,7.68-17.92,7.68c-14.507,0-25.6-11.093-25.6-25.6S236.227,54.467,250.733,54.467z M353.987,147.48
		c4.267,4.267,7.68,11.093,7.68,17.92c0,14.507-11.093,25.6-25.6,25.6s-25.6-11.093-25.6-25.6c0-6.827,2.56-13.653,7.68-17.92
		c4.267-4.267,11.093-7.68,17.92-7.68S349.72,142.36,353.987,147.48z M472.6,3.267c14.507,0,25.6,11.093,25.6,25.6
		s-11.093,25.6-25.6,25.6c-6.827,0-13.653-2.56-17.92-7.68c-4.267-4.267-7.68-11.093-7.68-17.92
		C447,14.36,458.093,3.267,472.6,3.267z M28.867,259.267c14.507,0,25.6,11.093,25.6,25.6s-11.093,25.6-25.6,25.6
		s-25.6-11.093-25.6-25.6S14.36,259.267,28.867,259.267z"/>
</g>
<path style="fill:#1e293b;" d="M499.2,503.467H4.267C1.707,503.467,0,501.76,0,499.2c0-2.56,1.707-4.267,4.267-4.267H51.2V396.8
	c0-2.56,1.707-4.267,4.267-4.267h51.2c2.56,0,4.267,1.707,4.267,4.267v98.133h25.6v-166.4c0-2.56,1.707-4.267,4.267-4.267H192
	c2.56,0,4.267,1.707,4.267,4.267v166.4h25.6V294.4c0-2.56,1.707-4.267,4.267-4.267h51.2c2.56,0,4.267,1.707,4.267,4.267v200.533
	h26.453V345.6c0-2.56,1.707-4.267,4.267-4.267h50.347c2.56,0,4.267,1.707,4.267,4.267v149.333h25.6v-268.8
	c0-2.56,1.707-4.267,4.267-4.267H448c2.56,0,4.267,1.707,4.267,4.267v268.8H499.2c2.56,0,4.267,1.707,4.267,4.267
	C503.467,501.76,501.76,503.467,499.2,503.467z M401.067,494.934h42.667V230.4h-42.667V494.934z M316.587,494.934H358.4V349.867
	h-41.813V494.934z M230.4,494.934h42.667V298.667H230.4V494.934z M145.067,494.934h42.667V332.8h-42.667V494.934z M59.733,494.934
	H102.4v-93.867H59.733V494.934z M29.867,315.733C13.653,315.733,0,302.08,0,285.867S13.653,256,29.867,256
	c8.533,0,17.067,4.267,22.187,10.24L224.427,93.867c-1.707-3.413-2.56-7.68-2.56-12.8c0-16.213,13.653-29.867,29.867-29.867
	S281.6,64.854,281.6,81.067c0,6.827-2.56,12.8-5.973,17.92l43.52,43.52c5.12-3.413,11.093-5.973,17.92-5.973s12.8,2.56,17.92,5.973
	l94.72-94.72c-3.413-5.12-5.973-11.093-5.973-17.92C443.734,13.654,457.387,0,473.6,0s29.867,13.653,29.867,29.867
	S489.814,59.733,473.6,59.733c-6.827,0-12.8-2.56-17.92-5.973l-94.72,94.72c3.413,5.12,5.973,11.093,5.973,17.92
	c0,16.213-13.653,29.867-29.867,29.867c-16.213,0-29.867-13.653-29.867-29.867c0-6.827,2.56-12.8,5.973-17.92l-43.52-43.52
	c-5.12,3.413-11.093,5.973-17.92,5.973c-8.533,0-17.067-4.267-22.187-10.24L57.173,273.067c1.707,3.413,2.56,7.68,2.56,12.8
	C59.733,302.08,46.08,315.733,29.867,315.733z M29.867,264.533c-11.947,0-21.333,9.387-21.333,21.333
	c0,11.947,9.387,21.333,21.333,21.333S51.2,297.813,51.2,285.867C51.2,273.92,41.813,264.533,29.867,264.533z M337.067,145.067
	c-11.947,0-21.333,9.387-21.333,21.333c0,11.947,9.387,21.333,21.333,21.333S358.4,178.347,358.4,166.4
	C358.4,154.454,349.013,145.067,337.067,145.067z M251.733,59.733c-11.947,0-21.333,9.387-21.333,21.333s9.387,21.333,21.333,21.333
	c11.947,0,21.333-9.387,21.333-21.333S263.68,59.733,251.733,59.733z M459.093,45.227c3.413,3.413,9.387,5.973,14.507,5.973
	c11.947,0,21.333-9.387,21.333-21.333S485.547,8.533,473.6,8.533c-11.947,0-21.333,9.387-21.333,21.333
	C452.267,35.84,454.827,40.96,459.093,45.227C458.24,44.374,458.24,44.374,459.093,45.227L459.093,45.227z"/>
</svg>