<svg xmlns="http://www.w3.org/2000/svg" xmlns:xlink="http://www.w3.org/1999/xlink" width="512" zoomAndPan="magnify" viewBox="0 0 384 383.999986" height="512" preserveAspectRatio="xMidYMid meet" version="1.2"><defs/><g id="937be1fca0"><g style="fill:#0a4c86;fill-opacity:1;"><g transform="translate(44.613285, 181.649986)"><path style="stroke:none" d="M 54.90625 -62.25 C 64.101562 -60.75 71.148438 -57.320312 76.046875 -51.96875 C 80.953125 -46.625 83.40625 -40 83.40625 -32.09375 C 83.40625 -26 81.800781 -20.375 78.59375 -15.21875 C 75.394531 -10.070312 70.519531 -5.945312 63.96875 -2.84375 C 57.425781 0.25 49.40625 1.796875 39.90625 1.796875 C 32.5 1.796875 25.21875 0.820312 18.0625 -1.125 C 10.914062 -3.070312 4.84375 -5.847656 -0.15625 -9.453125 L 9.296875 -28.046875 C 13.296875 -25.046875 17.921875 -22.71875 23.171875 -21.0625 C 28.421875 -19.414062 33.796875 -18.59375 39.296875 -18.59375 C 45.398438 -18.59375 50.203125 -19.769531 53.703125 -22.125 C 57.203125 -24.476562 58.953125 -27.800781 58.953125 -32.09375 C 58.953125 -40.695312 52.398438 -45 39.296875 -45 L 28.203125 -45 L 28.203125 -61.046875 L 49.796875 -85.5 L 5.09375 -85.5 L 5.09375 -105 L 78.59375 -105 L 78.59375 -89.25 Z M 54.90625 -62.25 "/></g></g><g style="fill:#0a4c86;fill-opacity:1;"><g transform="translate(133.413296, 181.649986)"><path style="stroke:none" d="M 89.546875 -54.59375 C 95.546875 -52.695312 100.242188 -49.523438 103.640625 -45.078125 C 107.046875 -40.628906 108.75 -35.15625 108.75 -28.65625 C 108.75 -19.445312 105.171875 -12.367188 98.015625 -7.421875 C 90.867188 -2.472656 80.445312 0 66.75 0 L 12.453125 0 L 12.453125 -105 L 63.75 -105 C 76.550781 -105 86.375 -102.546875 93.21875 -97.640625 C 100.070312 -92.742188 103.5 -86.097656 103.5 -77.703125 C 103.5 -72.597656 102.273438 -68.046875 99.828125 -64.046875 C 97.378906 -60.046875 93.953125 -56.894531 89.546875 -54.59375 Z M 36.59375 -86.703125 L 36.59375 -61.953125 L 60.75 -61.953125 C 66.75 -61.953125 71.296875 -63 74.390625 -65.09375 C 77.492188 -67.195312 79.046875 -70.300781 79.046875 -74.40625 C 79.046875 -78.5 77.492188 -81.570312 74.390625 -83.625 C 71.296875 -85.675781 66.75 -86.703125 60.75 -86.703125 Z M 64.953125 -18.296875 C 71.347656 -18.296875 76.171875 -19.34375 79.421875 -21.4375 C 82.671875 -23.539062 84.296875 -26.796875 84.296875 -31.203125 C 84.296875 -39.898438 77.847656 -44.25 64.953125 -44.25 L 36.59375 -44.25 L 36.59375 -18.296875 Z M 64.953125 -18.296875 "/></g></g><g style="fill:#0a4c86;fill-opacity:1;"><g transform="translate(246.66331, 181.649986)"><path style="stroke:none" d="M 34.203125 -85.203125 L 0.59375 -85.203125 L 0.59375 -105 L 92.09375 -105 L 92.09375 -85.203125 L 58.5 -85.203125 L 58.5 0 L 34.203125 0 Z M 34.203125 -85.203125 "/></g></g><g style="fill:#0097b2;fill-opacity:1;"><g transform="translate(109.943755, 313.506551)"><path style="stroke:none" d="M 81.59375 -22.5 L 32.84375 -22.5 L 23.546875 0 L -1.34375 0 L 45.453125 -105 L 69.453125 -105 L 116.40625 0 L 90.90625 0 Z M 73.953125 -40.953125 L 57.296875 -81.15625 L 40.65625 -40.953125 Z M 73.953125 -40.953125 "/></g></g><g style="fill:#0097b2;fill-opacity:1;"><g transform="translate(224.843778, 313.506551)"><path style="stroke:none" d="M 12.453125 -105 L 36.75 -105 L 36.75 0 L 12.453125 0 Z M 12.453125 -105 "/></g></g></g></svg>