<svg xmlns="http://www.w3.org/2000/svg" xmlns:xlink="http://www.w3.org/1999/xlink" width="512" zoomAndPan="magnify" viewBox="0 0 384 94.499997" height="126" preserveAspectRatio="xMidYMid meet" version="1.2"><defs><clipPath id="d9c6b40045"><path d="M 1.011719 2 L 73 2 L 73 94.003906 L 1.011719 94.003906 Z M 1.011719 2 "/></clipPath></defs><g id="6275819cfa"><g clip-rule="nonzero" clip-path="url(#d9c6b40045)"><g style="fill:#0a4c86;fill-opacity:1;"><g transform="translate(1.033847, 93.256572)"><path style="stroke:none" d="M 47.328125 -53.671875 C 55.253906 -52.367188 61.328125 -49.410156 65.546875 -44.796875 C 69.773438 -40.191406 71.890625 -34.484375 71.890625 -27.671875 C 71.890625 -22.410156 70.507812 -17.5625 67.75 -13.125 C 65 -8.6875 60.800781 -5.128906 55.15625 -2.453125 C 49.507812 0.210938 42.585938 1.546875 34.390625 1.546875 C 28.015625 1.546875 21.742188 0.707031 15.578125 -0.96875 C 9.421875 -2.644531 4.1875 -5.035156 -0.125 -8.140625 L 8.015625 -24.1875 C 11.460938 -21.59375 15.445312 -19.582031 19.96875 -18.15625 C 24.5 -16.738281 29.132812 -16.03125 33.875 -16.03125 C 39.132812 -16.03125 43.269531 -17.039062 46.28125 -19.0625 C 49.300781 -21.09375 50.8125 -23.960938 50.8125 -27.671875 C 50.8125 -35.085938 45.164062 -38.796875 33.875 -38.796875 L 24.3125 -38.796875 L 24.3125 -52.625 L 42.9375 -73.703125 L 4.390625 -73.703125 L 4.390625 -90.515625 L 67.765625 -90.515625 L 67.765625 -76.9375 Z M 47.328125 -53.671875 "/></g></g></g><g style="fill:#0a4c86;fill-opacity:1;"><g transform="translate(77.579551, 93.256572)"><path style="stroke:none" d="M 77.203125 -47.0625 C 82.367188 -45.425781 86.414062 -42.691406 89.34375 -38.859375 C 92.28125 -35.023438 93.75 -30.304688 93.75 -24.703125 C 93.75 -16.765625 90.664062 -10.660156 84.5 -6.390625 C 78.34375 -2.128906 69.359375 0 57.546875 0 L 10.734375 0 L 10.734375 -90.515625 L 54.953125 -90.515625 C 65.992188 -90.515625 74.460938 -88.398438 80.359375 -84.171875 C 86.265625 -79.953125 89.21875 -74.222656 89.21875 -66.984375 C 89.21875 -62.585938 88.160156 -58.664062 86.046875 -55.21875 C 83.941406 -51.769531 80.992188 -49.050781 77.203125 -47.0625 Z M 31.546875 -74.75 L 31.546875 -53.40625 L 52.375 -53.40625 C 57.539062 -53.40625 61.457031 -54.3125 64.125 -56.125 C 66.800781 -57.9375 68.140625 -60.609375 68.140625 -64.140625 C 68.140625 -67.671875 66.800781 -70.320312 64.125 -72.09375 C 61.457031 -73.863281 57.539062 -74.75 52.375 -74.75 Z M 56 -15.78125 C 61.507812 -15.78125 65.664062 -16.679688 68.46875 -18.484375 C 71.269531 -20.296875 72.671875 -23.097656 72.671875 -26.890625 C 72.671875 -34.390625 67.113281 -38.140625 56 -38.140625 L 31.546875 -38.140625 L 31.546875 -15.78125 Z M 56 -15.78125 "/></g></g><g style="fill:#0a4c86;fill-opacity:1;"><g transform="translate(175.201128, 93.256572)"><path style="stroke:none" d="M 29.484375 -73.453125 L 0.515625 -73.453125 L 0.515625 -90.515625 L 79.390625 -90.515625 L 79.390625 -73.453125 L 50.4375 -73.453125 L 50.4375 0 L 29.484375 0 Z M 29.484375 -73.453125 "/></g></g><g style="fill:#0097b2;fill-opacity:1;"><g transform="translate(250.588433, 93.256572)"><path style="stroke:none" d="M 70.34375 -19.390625 L 28.3125 -19.390625 L 20.296875 0 L -1.15625 0 L 39.1875 -90.515625 L 59.875 -90.515625 L 100.34375 0 L 78.359375 0 Z M 63.75 -35.296875 L 49.390625 -69.953125 L 35.046875 -35.296875 Z M 63.75 -35.296875 "/></g></g><g style="fill:#0097b2;fill-opacity:1;"><g transform="translate(349.632377, 93.256572)"><path style="stroke:none" d="M 10.734375 -90.515625 L 31.6875 -90.515625 L 31.6875 0 L 10.734375 0 Z M 10.734375 -90.515625 "/></g></g></g></svg>