<svg viewBox="0 0 256 256" xmlns="http://www.w3.org/2000/svg"><path fill="#fce7f3" d="M87.1,70.4c0.6,0,1.2-0.1,1.8-0.3c7.8-2.9,16.1-4.9,24.7-5.9c2.8-0.3,4.7-2.8,4.4-5.6c-0.3-2.8-2.8-4.8-5.6-4.4 c-9.4,1.1-18.6,3.3-27.1,6.5c-2.6,1-3.9,3.9-2.9,6.5C83.1,69.1,85,70.4,87.1,70.4z"></path><path fill="#fce7f3" d="M228.1,134.2c-2.8,0.2-4.8,2.7-4.6,5.4c1.8,21.4-5.8,42.9-20.2,57.3c-1.9,1.9-3.2,4.3-3.9,6.8L188.9,240h-24.1l-2.8-11 c-0.6-2.2-2.6-3.8-4.9-3.8L97.8,225c0,0,0,0,0,0c-2.3,0-4.3,1.5-4.9,3.8L90,240H66l-6.8-23.8c-1.2-4.4-4.8-8.5-8.9-10.2 c-14-6.4-26.6-13.8-37.5-22c-1.1-0.8-1.7-2.1-1.7-3.5l0.1-44.4l6.5-0.1c1.6,0,3-0.8,4-2l24-31.9c1.7-2.5,0.6-4.9-0.4-7.1 c-0.3-0.8-0.6-1.6-0.9-2.3l-0.4-0.9C43,89.6,42,87.5,41,85.4c-1.8-3.7-3.7-7.4-5.9-11.5c-0.3-0.5-0.5-0.9-0.8-1.3 c-0.1-0.2-0.2-0.4-0.3-0.6c0.7,0,1.5-0.1,2.4-0.1c5.7,0,11,0.8,15.8,2.5c1.4,0.5,4.3,1.9,5,2.2c1.4,0.8,7.2,4.2,8.5,5.1 c6.2,4.6,11.2,10.7,14.6,17.5c1.2,2.5,4.2,3.5,6.7,2.3c2.5-1.2,3.5-4.2,2.3-6.7c-4.1-8.2-10.1-15.5-17.5-21.1 c-2.2-1.7-9.5-5.8-9.6-5.9l0,0c-2.4-1.4-6.6-3-6.6-3c-5.7-2-12-3.1-18.9-3.1c-1.1,0-2.3,0-3.5,0.1c-0.7,0-1.4,0.1-2.2,0.2 c-0.3,0-0.8,0-1.3,0.2l0,0c-0.1,0-0.2,0.1-0.4,0.1c-2.6,0.7-4.8,2.6-5.8,5.1c-1.1,2.7-0.1,5.2,0.5,6.8c0.4,1,0.9,2,1.6,3.3 c0.1,0.1,0.2,0.3,0.2,0.4c0.2,0.2,0.2,0.4,0.4,0.6c2.1,3.9,3.9,7.5,5.6,11c0.9,2,1.9,4,2.7,5.9l0.4,0.9c0.2,0.6,0.5,1.2,0.7,1.8 c0,0,0,0,0,0l-20.7,27.5l-9,0.1c-2.8,0-5,2.3-5,5l-0.1,49.4c0,4.5,2.1,8.7,5.7,11.5c11.5,8.7,24.8,16.5,39.5,23.3 c1.4,0.6,2.8,2.2,3.3,3.8l7.9,27.5c0.6,2.2,2.6,3.6,4.8,3.6h31.7c2.3,0,4.3-1.5,4.9-3.8l2.9-11.2l51.6,0.2l2.8,11 c0.6,2.2,2.6,3.8,4.9,3.8h31.8c2.2,0,4.2-1.5,4.8-3.6l11.5-40c0.2-0.9,0.7-1.7,1.3-2.3c16.5-16.5,25.1-40.9,23.1-65.3 C233.3,136,230.8,134,228.1,134.2z"></path><path fill="#db2777" d="M172.3,122.3c-13.5,0-24.5-11-24.5-24.5s11-24.5,24.5-24.5s24.5,11,24.5,24.5S185.8,122.3,172.3,122.3z"></path><path fill="#fce7f3" d="M172.3,82.3c-8.5,0-15.5,7-15.5,15.5s7,15.5,15.5,15.5s15.5-7,15.5-15.5S180.8,82.3,172.3,82.3z"></path><path fill="#db2777" d="M172.3,65.8c-2.8,0-5-2.2-5-5v-7.5c0-2.8,2.2-5,5-5s5,2.2,5,5v7.5C177.3,63.5,175.1,65.8,172.3,65.8z"></path><path fill="#db2777" d="M172.3,136.8c-2.8,0-5-2.2-5-5v-7.5c0-2.8,2.2-5,5-5s5,2.2,5,5v7.5C177.3,134.5,175.1,136.8,172.3,136.8z"></path><path fill="#db2777" d="M202.5,97.8c-2.8,0-5-2.2-5-5v-7.5c0-2.8,2.2-5,5-5s5,2.2,5,5v7.5C207.5,95.5,205.3,97.8,202.5,97.8z" transform="rotate(45, 202.5, 97.8)"></path><path fill="#db2777" d="M142,97.8c-2.8,0-5-2.2-5-5v-7.5c0-2.8,2.2-5,5-5s5,2.2,5,5v7.5C147,95.5,144.8,97.8,142,97.8z" transform="rotate(45, 142.1, 97.8)"></path><path fill="#db2777" d="M196.8,122.3c-2.8,0-5-2.2-5-5v-7.5c0-2.8,2.2-5,5-5s5,2.2,5,5v7.5C201.8,120.1,199.6,122.3,196.8,122.3z" transform="rotate(90, 196.8, 122.3)"></path><path fill="#db2777" d="M147.8,73.3c-2.8,0-5-2.2-5-5v-7.5c0-2.8,2.2-5,5-5s5,2.2,5,5v7.5C152.8,71.1,150.6,73.3,147.8,73.3z" transform="rotate(90, 147.8, 73.3)"></path><path fill="#db2777" d="M202.5,97.8c-2.8,0-5-2.2-5-5v-7.5c0-2.8,2.2-5,5-5s5,2.2,5,5v7.5C207.5,95.5,205.3,97.8,202.5,97.8z" transform="rotate(135, 202.5, 97.8)"></path><path fill="#db2777" d="M142,97.8c-2.8,0-5-2.2-5-5v-7.5c0-2.8,2.2-5,5-5s5,2.2,5,5v7.5C147,95.5,144.8,97.8,142,97.8z" transform="rotate(135, 142.1, 97.8)"></path></svg>